<svg id="rlc-sig-alph" width="209px" height="83px" viewBox="0 0 209 83" version="1.1" xmlns="http://www.w3.org/2000/svg" xmlns:xlink="http://www.w3.org/1999/xlink">
  <g id="Page-1" stroke="none" stroke-width="1" fill="none" fill-rule="evenodd" stroke-linecap="round" stroke-linejoin="round">
  <path d="M30.5863796,38.9828875 C39.4534842,14.1791369 -1.45703318,44.2016337 4.44638739,50.7330176 C5.68024195,52.0981207 11.0561527,52.9376399 12.8493632,52.5249662 C17.748959,51.3974165 21.8691612,47.5900784 26.8518277,46.9189274 C33.432145,46.0325775 32.0334072,48.4619709 38.6730742,48.430153 C50.3628805,48.3741344 90.619934,34.904 97.3011419,18.0128777 C97.7868072,16.7850411 97.524071,14.7150409 96.3186114,14.1791369 C81.6137472,7.64188301 38.6730742,60.3094157 69.444,58.4730774 C75.9275613,58.0861533 90.476781,55.074401 94.131779,52.5249662 C104.326057,45.414252 107.047663,42.6345609 114.056563,36.5162679 C119.397739,31.853785 134.561666,17.5439979 129.372812,21.7577228 C117.064043,31.7533339 109.471421,38.9828875 95.7184107,50.0115594 C88.4706886,55.8235779 73.4922768,67.067552 67.9096278,73.3090358 C66.1467509,75.2799581 65.1925556,79.681935 65.9509176,79.5076559 C84.3474177,75.2799581 109.400824,31.012023 133.410544,22.8497354 C134.679277,22.4184202 136.424089,22.7180998 137.340667,23.6956474 C148.639855,35.7464441 100.303463,54.5693427 109.738619,48.430153 C114.12632,45.5751999 135.204516,38.5361711 146.232101,30.6360563 C158.973909,21.5078793 171.286106,16.2922444 182.845869,5.70691606 C189.066068,0.011051249 168.467506,14.5681795 161.700875,19.6027057 C158.801567,21.759856 156.132059,24.3056945 153.963213,27.1962635 C153.266613,28.1246697 152.390363,30.1048448 153.422353,30.6360563 C156.226091,32.0792657 160.013845,30.3075994 162.816281,31.7533339 C165.221517,32.9941588 165.530466,36.760914 167.884268,38.0967385 C177.864865,43.7609071 203.036127,31.8348049 205.431908,31.1338718" id="Path-2" stroke="#979797" stroke-width="7" style="stroke-dashoffset: 0; stroke-dasharray: none;"></path>
  </g>
  </svg>