<svg id="rlc-sig-auren" width="247px" height="29px" viewBox="0 0 247 29" version="1.1" xmlns="http://www.w3.org/2000/svg" xmlns:xlink="http://www.w3.org/1999/xlink">
  <title>Path 4</title>
  <g id="Page-1" stroke="none" stroke-width="1" fill="none" fill-rule="evenodd" stroke-linecap="round" stroke-linejoin="round">
  <path d="M25.6955779,21.2452732 C-11.6667058,33.8913115 7.21302769,10.6694394 23.6860956,4.53531047 C33.7278565,0.796027836 43.3453405,10.5446299 35.773356,16.9609199 C31.0743497,20.9427279 32.9846815,12.3424476 32.9970951,12.3015022 C33.3420357,11.163743 35.5005981,8.33933987 35.1867669,9.48607004 C34.5856599,11.6824975 29.3473371,16.4143658 31.6437291,19.8449017 C38.8478531,30.6070042 57.6293479,13.3954074 60.2658598,10.6510685 C61.098647,9.78422244 58.4551815,8.77099211 57.9099972,9.48607004 C45.2739213,26.0598777 67.4004465,18.9953204 71.6496287,16.9609199 C74.3141446,15.6852174 79.1833865,9.52881281 80.1102917,7.69006915 C80.234986,7.44270736 80.7261856,13.2475535 81.6530907,14.3317663 C81.4432367,18.0071899 84.8595528,19.5563403 91.9020389,18.9792176 C102.465768,18.1135334 104.200057,4.38582158 105.266055,7.69006915 C108.811669,18.6803113 91.0575915,23.0489546 107.983559,13.5520437 C109.549872,12.6732088 112.969879,10.4447459 114.754009,10.6510685 C120.07958,11.2669355 124.434967,13.7252743 129.719742,14.6264718 C132.972432,15.1811436 130.914268,15.5507557 138.549849,16.1980602 C146.18543,16.8453648 150.531651,11.1130835 150.396044,10.6510685 C149.291187,6.88680201 134.885216,11.5001723 133.628544,13.5520437 C130.543736,18.5888609 144.385153,26.999027 154.921882,19.8449017 C165.458612,12.6907764 160.985873,11.348342 162.109385,11.8813907 C163.534312,12.5574447 161.139087,18.4621573 162.109385,18.9792176 C162.307162,19.0846101 165.198,8.889 169.289204,10.6510685 C175.577805,13.3595492 182.394475,16.8907966 186.57552,18.4621573 C204.277282,25.1150055 220.920354,20.023259 242.790616,16.1980602" id="Path-4" stroke="#979797" stroke-width="7" style="stroke-dashoffset: 0; stroke-dasharray: none;"></path>
  </g>
  </svg>